<svg xmlns="http://www.w3.org/2000/svg" xmlns:xlink="http://www.w3.org/1999/xlink" width="339" height="237" viewBox="0 0 339 237">
  <defs>
    <clipPath id="clip-path">
      <rect id="mask" width="339" height="237" transform="translate(73 102)" fill="#fff" stroke="#707070" stroke-width="1" opacity="0"/>
    </clipPath>
    <linearGradient id="linear-gradient" x1="0.05" y1="0.314" x2="0.975" y2="0.317" gradientUnits="objectBoundingBox">
      <stop offset="0" stop-color="#eff1f9"/>
      <stop offset="1" stop-color="#eff1f9"/>
    </linearGradient>
  </defs>
  <g id="background" transform="translate(-73 -102)" clip-path="url(#clip-path)">
    <path id="bg-logo" d="M-3088.838,153.157q-11.784-12.18-8.445-35.62l11.942-80.981h31.283l-11.738,79.51q-1.868,13.077,2.135,19.495,3.979,6.411,15.051,6.411,10.8-.006,16.752-6.163t7.886-19.746l11.15-78.409h.012l.239-1.7a311.4,311.4,0,0,0,31.7-2.956l-6.152,43.237-5.871,41.22q-3.293,23.109-18.237,35.5t-40.806,12.387h-.035Q-3077.056,165.339-3088.838,153.157Zm-194.249,11.318q-28.063-.007-42.158-16.976t-9.717-47.735q4.227-29.662,23.277-47.309t47.131-17.643a94.489,94.489,0,0,1,13.292.839,83.222,83.222,0,0,1,11.063,2.343,73.1,73.1,0,0,1,8.806,3.438q4.718,2.187,7.59,3.768l-4.231,29.755h-3.184q-1.985-2.011-5.019-4.82a57.691,57.691,0,0,0-7.02-5.494,43.933,43.933,0,0,0-8.951-4.583,29.955,29.955,0,0,0-10.677-1.881,37.441,37.441,0,0,0-12.758,2.139,36.216,36.216,0,0,0-11.836,7.42,43.3,43.3,0,0,0-9.515,12.912,61.282,61.282,0,0,0-5.707,19.2q-1.657,11.655.32,19.582a29.567,29.567,0,0,0,6.313,12.783,24.309,24.309,0,0,0,9.892,6.8,33.539,33.539,0,0,0,11.66,2.092,36.438,36.438,0,0,0,12.12-2.069,55.255,55.255,0,0,0,10.135-4.6,76.835,76.835,0,0,0,8.129-5.315q3.58-2.69,6.225-4.8h2.849l-4.18,29.394q-3.669,1.6-8.485,3.659a83.994,83.994,0,0,1-9.794,3.482,110.874,110.874,0,0,1-11.364,2.692,86.3,86.3,0,0,1-12.683.936Q-3282.326,164.488-3283.087,164.475Zm137.427-2.1c-32.162,0-41.157-70.1-41.157-70.1l-9.974,70.1h-28.649l17.751-124.724h38.407c.7,21.812,14.51,94.216,26.875,89.692l12.755-89.693H-3101l-17.744,124.725Z" transform="translate(3409.866 69)" fill="url(#linear-gradient)"/>
    <g id="chacha" transform="translate(101.18 -8.12)">
      <g id="그룹_1" data-name="그룹 1" transform="translate(145.818 237.263)">
        <path id="패스_1" data-name="패스 1" d="M182.342,357.978s-15.719-3.522-24.652,4.295-9.363,20.873,2.663,27.057" transform="translate(-148.849 -354.887)" fill="#fff"/>
        <path id="패스_2" data-name="패스 2" d="M157.32,388.577a2.282,2.282,0,0,1-1.046-.254c-5.954-3.062-9.623-7.939-10.333-13.732-.747-6.1,1.948-12.483,7.209-17.086,9.7-8.484,25.974-4.961,26.661-4.806a2.29,2.29,0,0,1-1,4.471c-.147-.032-14.71-3.161-22.646,3.783-4.118,3.6-6.241,8.494-5.679,13.081.52,4.241,3.318,7.869,7.881,10.216a2.291,2.291,0,0,1-1.049,4.328Z" transform="translate(-145.818 -351.843)" fill="#002076"/>
      </g>
      <g id="그룹_2" data-name="그룹 2" transform="translate(241.651 267.21)">
        <path id="패스_3" data-name="패스 3" d="M374.19,438.393c-1.854,4.786,3.653,12.538,11.653,10.177s10.573-11.424,2.21-21.82" transform="translate(-371.534 -424.459)" fill="#fff"/>
        <path id="패스_4" data-name="패스 4" d="M379.9,448.259a11.331,11.331,0,0,1-8.427-3.714c-2.708-2.942-3.671-6.872-2.454-10.012a2.29,2.29,0,1,1,4.271,1.655c-.572,1.478.066,3.639,1.553,5.254a6.925,6.925,0,0,0,7.316,1.9,7.545,7.545,0,0,0,5.364-4.921c1.135-3.631-.429-8.465-4.291-13.267a2.29,2.29,0,0,1,3.569-2.871c4.908,6.1,6.717,12.317,5.094,17.505a11.989,11.989,0,0,1-8.439,7.948A12.545,12.545,0,0,1,379.9,448.259Z" transform="translate(-368.497 -421.427)" fill="#002076"/>
      </g>
      <g id="그룹_3" data-name="그룹 3" transform="translate(180.362 290.469)">
        <path id="패스_5" data-name="패스 5" d="M231.4,493.4s8.549,10.243,9.777,17.8c0,0-3.36,6.323.37,9.813s11.211,2.49,14.447-6.936-2.822-25.44-4.886-33.286" transform="translate(-229.115 -478.505)" fill="#fff"/>
        <path id="패스_6" data-name="패스 6" d="M243.288,522.123a9.227,9.227,0,0,1-6.332-2.465c-3.64-3.406-2.6-8.7-1.2-11.805-1.5-6.792-9.064-15.921-9.143-16.015a2.291,2.291,0,0,1,3.517-2.935c.366.438,8.965,10.816,10.28,18.9l.124.762-.362.681c-.021.042-2.444,4.863-.088,7.067a4.82,4.82,0,0,0,4.49,1.069c2.637-.657,4.907-3.236,6.225-7.076,2.431-7.078-1.158-19.12-3.532-27.088-.544-1.825-1.035-3.476-1.4-4.871a2.291,2.291,0,0,1,4.431-1.167c.356,1.356.834,2.958,1.362,4.73,2.694,9.038,6.383,21.416,3.476,29.884-2.509,7.307-7,9.422-9.451,10.033A9.929,9.929,0,0,1,243.288,522.123Z" transform="translate(-226.084 -475.472)" fill="#002076"/>
      </g>
      <g id="그룹_4" data-name="그룹 4" transform="translate(201.875 292.686)">
        <path id="패스_7" data-name="패스 7" d="M281.526,488.794s-2.981,16.43,14.485,22.057,28.686-10.59,41.126.436c4.479,3.97,3.982-10.574-9.1-18.059-19.01-10.874-35.533,10.6-40.292-6.1Z" transform="translate(-279.069 -484.327)" fill="#0091ae"/>
        <path id="패스_8" data-name="패스 8" d="M300.779,510.67a27.306,27.306,0,0,1-8.465-1.341c-19.154-6.172-16.071-24.462-16.038-24.647l.259-1.427,9.8-2.632.618,2.17c1.744,6.126,4.419,5.715,12.617,3.489,6.988-1.9,16.555-4.5,26.609,1.254,9.323,5.333,13.091,14.311,12.789,18.984-.165,2.557-1.486,3.473-2.259,3.791-.753.309-2.278.587-4.082-1.013-5.725-5.074-10.861-3.5-17.971-1.314C310.462,509.271,305.9,510.67,300.779,510.67ZM280.641,486.9c-.209,3.77.454,14,13.077,18.072,7.392,2.38,13.591.478,19.589-1.363,6.8-2.088,13.814-4.241,20.987,1.147-.591-3.159-3.336-9.2-10.393-13.238-8.408-4.81-16.23-2.686-23.133-.811-6.591,1.79-14,3.8-17.484-4.518Z" transform="translate(-276.074 -480.624)" fill="#002377"/>
      </g>
      <g id="그룹_5" data-name="그룹 5" transform="translate(203.691 150.698)">
        <path id="패스_9" data-name="패스 9" d="M293.716,199.687s23.982-11.822,31.575-29.635-21.1-24.737-39.675,16.414" transform="translate(-283.326 -153.719)" fill="#fff"/>
        <path id="패스_10" data-name="패스 10" d="M290.687,198.958a2.291,2.291,0,0,1-1.015-4.345c.232-.115,23.316-11.671,30.481-28.479,2.028-4.758,1.122-8.664-2.364-10.193-7.026-3.078-21.948,3.7-33.116,28.447A2.291,2.291,0,0,1,280.5,182.5c7.015-15.542,14.944-23.265,20.361-27.007,6.644-4.591,13.661-5.992,18.771-3.751,4.879,2.141,8.236,7.975,4.737,16.183-7.835,18.384-31.659,30.294-32.669,30.792A2.279,2.279,0,0,1,290.687,198.958Z" transform="translate(-280.293 -150.698)" fill="#002076"/>
      </g>
      <g id="그룹_6" data-name="그룹 6" transform="translate(226.679 205.786)">
        <path id="패스_11" data-name="패스 11" d="M363.8,284.025c1.674,20.155-10.573,30.539-3.831,44.788s-15.527,18.575-20.937-2.721" transform="translate(-336.74 -281.734)" fill="#0091ae"/>
        <path id="패스_12" data-name="패스 12" d="M350.652,340.047a12.985,12.985,0,0,1-2.707-.291c-6.665-1.424-11.962-7.454-14.166-16.131a2.29,2.29,0,1,1,4.44-1.128c1.766,6.951,5.76,11.728,10.683,12.78,2.529.54,4.863-.081,6.086-1.626,1.266-1.6,1.222-4.046-.122-6.888-4.048-8.556-1.867-15.906.442-23.687,1.919-6.463,3.9-13.147,3.176-21.891a2.291,2.291,0,1,1,4.565-.379c.8,9.6-1.406,17.025-3.35,23.574-2.231,7.515-3.992,13.452-.693,20.424,2.1,4.437,1.943,8.7-.427,11.692A9.937,9.937,0,0,1,350.652,340.047Z" transform="translate(-333.707 -278.702)" fill="#002377"/>
      </g>
      <g id="그룹_7" data-name="그룹 7" transform="translate(145.94 185.546)">
        <path id="패스_13" data-name="패스 13" d="M189,292.273c-9.871,17.95-19.3,20.22-22.175,34.783-3.156,15.995,9.108,30.253,27.683,31.28,31.08,1.718,32.578-27.656,39.4-53.978,3.662-14.122,20.132-29.078,10.743-46.419-11.8-21.8-39.463-11.022-67.3-19.958-28.739-9.226-47.793,46.274,22.453,55.481a100.643,100.643,0,0,0,18.277,1.01" transform="translate(-149.149 -234.678)" fill="#fff"/>
        <path id="패스_14" data-name="패스 14" d="M194.025,357.692q-1.309,0-2.69-.076c-10.131-.56-19.12-4.973-24.661-12.106a26.762,26.762,0,0,1-5.142-21.905c1.746-8.852,5.853-13.585,10.609-19.067a89.779,89.779,0,0,0,10.682-14.4c-24.579-6.323-32.61-18.8-35.227-26.361-3.2-9.251-1.174-19.106,5.292-25.718a21.236,21.236,0,0,1,22.119-5.268c10.031,3.22,19.921,3.8,29.485,4.367,15.988.943,31.089,1.833,39.128,16.681,7.036,12.994.791,24.7-4.719,35.032-2.44,4.574-4.743,8.894-5.821,13.052-.954,3.68-1.818,7.482-2.652,11.16C225.448,335.026,220.3,357.691,194.025,357.692Zm-6.538-66.471A92.071,92.071,0,0,1,175.6,307.54c-4.682,5.4-8.064,9.295-9.575,16.952a22.243,22.243,0,0,0,4.266,18.208c4.726,6.085,12.488,9.854,21.3,10.342,24.777,1.369,29.216-18.252,34.373-40.97.843-3.711,1.713-7.548,2.685-11.3,1.215-4.684,3.643-9.237,6.215-14.058,5.209-9.766,10.6-19.865,4.731-30.695-6.826-12.606-19.422-13.349-35.369-14.289-9.391-.554-20.034-1.182-30.616-4.579a16.526,16.526,0,0,0-17.444,4.107c-5.244,5.364-6.869,13.418-4.239,21.019,4.6,13.306,21.055,22.747,45.134,25.9a99.594,99.594,0,0,0,17.817,1,2.291,2.291,0,0,1,.325,4.57,102.319,102.319,0,0,1-18.738-1.023Q191.678,292.1,187.486,291.22Z" transform="translate(-146.102 -231.67)" fill="#002076"/>
      </g>
      <path id="패스_15" data-name="패스 15" d="M177.368,237.98a83.211,83.211,0,0,0,14.563,3.16,24.423,24.423,0,0,1,5.513,14.2c.508,13.893-8.911,27.9-23.783,31.054C135.625,268.779,153.009,230.16,177.368,237.98Z" transform="translate(-3.222 -49.131)" fill="#f4efe3" style="mix-blend-mode: multiply;isolation: isolate"/>
      <g id="그룹_8" data-name="그룹 8" transform="translate(184.952 151.564)">
        <path id="패스_16" data-name="패스 16" d="M250.611,179.575c-7.858-3.541-12.228-16.522-4.47-20.632,9.2-4.873,18.713,11.7,35.649,20.6,21.2,11.147,25.529,17.7,26.777,32.729l-2.184,5.681" transform="translate(-239.782 -155.76)" fill="#0091ae"/>
        <path id="패스_17" data-name="패스 17" d="M303.351,217.194a2.292,2.292,0,0,1-2.137-3.113l2-5.188c-1.206-13.55-5.047-19.61-25.517-30.372-6.971-3.666-12.6-8.484-17.573-12.734-7.523-6.435-11.976-9.97-15.938-7.871a5.629,5.629,0,0,0-2.846,5.5,13.4,13.4,0,0,0,7.185,11.021,2.291,2.291,0,1,1-1.882,4.177c-5.437-2.45-9.685-8.92-9.88-15.052a10.115,10.115,0,0,1,5.279-9.692c6.913-3.66,13.47,1.944,21.06,8.438,4.786,4.093,10.211,8.734,16.728,12.16,20.869,10.973,26.624,18.08,27.994,34.566l.043.522-2.373,6.17A2.292,2.292,0,0,1,303.351,217.194Z" transform="translate(-236.751 -152.709)" fill="#002377"/>
      </g>
      <g id="그룹_9" data-name="그룹 9" transform="translate(175.909 166.498)">
        <path id="패스_18" data-name="패스 18" d="M253.464,201.8s-18.7-14.542-28.157-6.894c-7.559,6.112-6.12,18.432,13.488,24.911l24.684,9.778,30.171,8.463,2.9-1.739-1.422-4.169" transform="translate(-218.775 -190.415)" fill="#0091ae"/>
        <path id="패스_19" data-name="패스 19" d="M290.945,237.527l-31.346-8.8-24.683-9.777c-14.766-4.875-18.23-12.414-18.97-16.47a12.692,12.692,0,0,1,4.885-12.352c10.749-8.689,30.181,6.228,31,6.867a2.29,2.29,0,0,1-2.811,3.617c-4.807-3.73-18.725-12.248-25.311-6.921a8.235,8.235,0,0,0-3.258,7.968c.948,5.2,6.789,9.935,16.025,12.987l24.7,9.779,29.108,8.165.468-.281-.824-2.416a2.29,2.29,0,0,1,4.335-1.479l2.02,5.921Z" transform="translate(-215.739 -187.411)" fill="#002377"/>
      </g>
      <g id="그룹_10" data-name="그룹 10" transform="translate(179.713 184.685)">
        <path id="패스_20" data-name="패스 20" d="M261.66,237.174s-25.418-6.477-30.416,3.164c-2.917,5.627-2.784,17.694,17.2,17.951s30.582-4.11,43.119,3.58l7.345-5.391" transform="translate(-227.598 -232.733)" fill="#0091ae"/>
        <path id="패스_21" data-name="패스 21" d="M288.655,261.566l-1.312-.806c-8.143-4.994-15.237-4.527-25.974-3.815-4.629.306-9.875.653-15.977.574-11.9-.153-16.92-4.4-19.038-7.935-2.805-4.682-1.841-10.124-.162-13.361,5.67-10.94,30.233-5.038,33.015-4.329a2.291,2.291,0,0,1-1.131,4.439c-6.138-1.561-24.427-4.542-27.817,2a9.4,9.4,0,0,0,.026,8.9c2.178,3.635,7.423,5.609,15.167,5.709,5.913.075,11.072-.265,15.616-.565,10.257-.679,18.465-1.22,27.33,3.7l6.132-4.5a2.291,2.291,0,0,1,2.711,3.693Z" transform="translate(-224.578 -229.671)" fill="#002377"/>
      </g>
      <path id="패스_22" data-name="패스 22" d="M192.883,278.515a1.958,1.958,0,1,0,2.375-1.423A1.958,1.958,0,0,0,192.883,278.515Z" transform="translate(-26.776 -71.965)" fill="#002377"/>
      <path id="패스_23" data-name="패스 23" d="M173.927,262.556a1.958,1.958,0,1,0,2.375-1.423A1.958,1.958,0,0,0,173.927,262.556Z" transform="translate(-15.978 -62.874)" fill="#002377"/>
      <g id="그룹_11" data-name="그룹 11" transform="translate(232.033 202.637)">
        <path id="패스_24" data-name="패스 24" d="M351.473,284.352s24.171-11.431,42.844-6.3,6.25,31.909-37.526,20.865" transform="translate(-349.182 -274.428)" fill="#fff"/>
        <path id="패스_25" data-name="패스 25" d="M373.174,300.806a81.8,81.8,0,0,1-19.976-2.711,2.29,2.29,0,1,1,1.121-4.441c26.316,6.641,40.915-.824,42.87-8.247.97-3.68-1.526-6.819-6.513-8.189-17.619-4.839-41.024,6.053-41.259,6.162a2.29,2.29,0,0,1-1.957-4.141c1.018-.482,25.156-11.737,44.429-6.438,8.6,2.364,11.086,8.621,9.729,13.773-1.422,5.4-6.883,10.018-14.61,12.368A47.5,47.5,0,0,1,373.174,300.806Z" transform="translate(-346.149 -271.385)" fill="#002076"/>
      </g>
      <path id="패스_26" data-name="패스 26" d="M372.927,302.913a5.672,5.672,0,0,1-.575-.029,3.148,3.148,0,0,1-2.915-2.126,2.718,2.718,0,0,1,.471-2.469c1.984-2.731,9.362-4.547,19.254-4.739,11.811-.227,13.778,2.8,14.1,3.739a1.242,1.242,0,0,1-2.309.905c-.127-.179-1.894-2.352-11.738-2.161-2.535.049-4.775.2-6.731.426a1.263,1.263,0,0,1-.117.3C380.233,300.688,375.963,302.912,372.927,302.913Zm6.355-5.985c-4.364.8-6.737,1.955-7.365,2.82-.136.187-.114.256-.1.289.081.266.531.35.791.377C374.264,300.587,377.281,299.42,379.281,296.928Z" transform="translate(-127.315 -81.367)" fill="#002076"/>
      <path id="패스_27" data-name="패스 27" d="M300.506,307.308c-.247,2.2,1.811,3.986,4.6,3.984s5.246-1.79,5.494-3.992-1.811-3.986-4.6-3.984S300.753,305.106,300.506,307.308Z" transform="translate(-88.105 -86.937)" fill="#002377"/>
      <path id="패스_28" data-name="패스 28" d="M309.163,338.3a5.413,5.413,0,1,1-3.934-6.566A5.413,5.413,0,0,1,309.163,338.3Z" transform="translate(-86.972 -103.034)" fill="#f7c7c1" style="mix-blend-mode: multiply;isolation: isolate"/>
      <path id="패스_29" data-name="패스 29" d="M383.052,299.367s-6.066,6.622-8.863,5.161S377.344,298.442,383.052,299.367Z" transform="translate(-129.682 -84.618)" fill="#002377"/>
      <g id="그룹_12" data-name="그룹 12" transform="translate(148.369 279.608)">
        <path id="패스_30" data-name="패스 30" d="M172.777,466.894c3.62-9.082-6.094-14.017-11.6-9.75-4.871,3.776-8.757,18.214,8.808,21.455,4.79.884,19.866,3.615,30.4,4.42" transform="translate(-154.775 -453.286)" fill="#fff"/>
        <path id="패스_31" data-name="패스 31" d="M197.358,482.258c-.059,0-.117,0-.177-.007-7.168-.547-18.049-2.128-30.64-4.45-10.668-1.969-13.615-7.836-14.423-11.158-1.379-5.675,1.27-11.758,4.628-14.36a10.128,10.128,0,0,1,12.265.04c2.9,2.182,5.172,6.577,2.865,12.369a2.291,2.291,0,0,1-4.256-1.7c1.166-2.927.67-5.483-1.363-7.014a5.625,5.625,0,0,0-6.7-.078,10.282,10.282,0,0,0-2.982,9.657c.956,3.932,4.691,6.607,10.8,7.735,12.436,2.294,23.147,3.852,30.158,4.388a2.29,2.29,0,0,1-.172,4.574Z" transform="translate(-151.745 -450.235)" fill="#002076"/>
      </g>
      <path id="패스_32" data-name="패스 32" d="M170.121,472.437c-.63,2.7-2.405,4.594-3.965,4.232s-2.312-2.845-1.681-5.544,2.405-4.594,3.964-4.232S170.751,469.737,170.121,472.437Z" transform="translate(-10.501 -180.09)" fill="#0091bb"/>
      <path id="패스_33" data-name="패스 33" d="M263.27,350.313a7.085,7.085,0,0,1-1.213-.107c-4.854-.837-5.724-4.378-5.759-4.528a1.242,1.242,0,0,1,2.416-.575c.033.119.627,2.115,3.765,2.656a3.615,3.615,0,0,0,4.1-2.223,1.242,1.242,0,0,1,2.325.871A6.094,6.094,0,0,1,263.27,350.313Z" transform="translate(-62.916 -110.201)" fill="#002076"/>
      <g id="그룹_13" data-name="그룹 13" transform="translate(158.977 265.893)">
        <path id="패스_34" data-name="패스 34" d="M183.25,423.691s-2.577,8.332-1.116,11.081S201.117,448,221.99,449.546s22.247-1.2,24.909-9.448" transform="translate(-179.409 -421.4)" fill="#fff"/>
        <path id="패스_35" data-name="패스 35" d="M228.034,449.2c-2.618,0-5.665-.136-9.228-.4-20.8-1.541-39.653-12.113-41.708-15.985-1.77-3.331.28-10.664.951-12.831a2.29,2.29,0,0,1,4.376,1.352c-1.2,3.888-1.811,8.335-1.282,9.33,1.454,2.122,17.823,12.07,38,13.565,19.549,1.446,20.249-.712,22.561-7.869a2.29,2.29,0,1,1,4.359,1.408C243.473,445.79,241.1,449.2,228.034,449.2Z" transform="translate(-176.394 -418.367)" fill="#002076"/>
      </g>
      <g id="그룹_14" data-name="그룹 14" transform="translate(163.727 239.98)">
        <path id="패스_36" data-name="패스 36" d="M207.416,364.015s27.171,11.911,51.107,9.964c0,0,4.352,17.752-3.779,30.579s-50.307.118-60.127-11.338C189.12,386.806,196.421,369.34,207.416,364.015Z" transform="translate(-190.458 -361.493)" fill="#002377"/>
        <path id="패스_37" data-name="패스 37" d="M237.269,408.879c-15.983,0-39.788-8.608-47.417-17.506-2.29-2.672-2.985-6.856-1.957-11.782,1.5-7.216,7-16.857,15.5-20.975l.95-.46.968.424c.267.117,26.945,11.659,50,9.779l1.945-.158.465,1.9c.188.763,4.487,18.854-4.069,32.35-2.362,3.727-6.927,5.859-13.565,6.337C239.18,408.848,238.238,408.879,237.269,408.879Zm-32.778-45.672c-6.324,3.544-10.847,11.252-12.112,17.318-.72,3.454-.373,6.321.951,7.866,6.613,7.714,30.778,16.946,46.428,15.822,3.514-.253,8.105-1.19,10.025-4.22,6.02-9.5,4.648-22.206,3.853-26.935C232.328,374.13,209.6,365.321,204.491,363.208Z" transform="translate(-187.432 -358.156)" fill="#002076"/>
      </g>
      <g id="그룹_15" data-name="그룹 15" transform="translate(237.834 262.46)">
        <path id="패스_38" data-name="패스 38" d="M364.951,432.543s2.147,6.013,8.5,4.467,10.393-4.123,12.369-10.393-2.92-10.909-2.92-10.909" transform="translate(-362.66 -413.419)" fill="#fff"/>
        <path id="패스_39" data-name="패스 39" d="M368.388,436.53a9.372,9.372,0,0,1-8.625-6.245,2.29,2.29,0,0,1,4.308-1.556,4.727,4.727,0,0,0,5.81,3.027c6.264-1.524,9.172-3.924,10.726-8.856,1.507-4.782-2.163-8.414-2.32-8.567a2.29,2.29,0,0,1,3.16-3.316c.243.229,5.908,5.71,3.53,13.26-2.563,8.133-8.522,10.594-14.012,11.931A10.9,10.9,0,0,1,368.388,436.53Z" transform="translate(-359.628 -410.39)" fill="#002076"/>
      </g>
      <g id="그룹_16" data-name="그룹 16" transform="translate(212.308 249.059)">
        <path id="패스_40" data-name="패스 40" d="M317.334,385.233c5.323-.507,12.254-2.4,23.707,4.008s10.308,16.378,3.779,21.617c-5.109,4.1-12.941,4.839-16.606,1.174s-3.436-1.375-10.307-1.6-11.8-3.55-12.255-12.827S314.929,385.462,317.334,385.233Z" transform="translate(-303.346 -382.284)" fill="#fff"/>
        <path id="패스_41" data-name="패스 41" d="M331.9,413.672a11.63,11.63,0,0,1-8.334-3.055c-1.542-1.542-1.539-1.541-3.216-1.288a27.366,27.366,0,0,1-5.548.355c-8.993-.3-14-5.488-14.466-15-.494-10.018,9.237-14.332,13.753-14.762h0c.614-.059,1.248-.136,1.91-.217,5.226-.636,12.388-1.511,23.134,4.507,5.891,3.3,9.37,7.938,9.8,13.061a14.488,14.488,0,0,1-5.7,12.34A18.441,18.441,0,0,1,331.9,413.672Zm-10.327-9.051c1.7,0,3.088.613,5.232,2.757,2.717,2.719,9.306,2.068,13.553-1.34a9.934,9.934,0,0,0,4-8.389c-.3-3.609-2.883-6.875-7.469-9.443-9.439-5.286-15.484-4.549-20.34-3.957-.7.087-1.378.168-2.03.231h0c-.1.009-10.023,1.63-9.61,9.975.352,7.146,3.45,10.431,10.043,10.65a23.075,23.075,0,0,0,4.7-.3A12.845,12.845,0,0,1,321.57,404.621ZM314.3,382.2h0Z" transform="translate(-300.315 -379.25)" fill="#002076"/>
      </g>
      <g id="그룹_17" data-name="그룹 17" transform="translate(160.797 244.033)">
        <path id="패스_42" data-name="패스 42" d="M185.92,373.018s5.154-1.117,11.768,3.092.945,16.835.945,16.835-12.541-.43-12.2-.343" transform="translate(-183.641 -370.599)" fill="#fff"/>
        <path id="패스_43" data-name="패스 43" d="M197.075,392.263l-1.538-.053c-4.1-.14-10.748-.353-11.879-.354a2.254,2.254,0,0,1-.8-.057,2.3,2.3,0,0,1-1.716-2.545c.29-2.046,1.946-2,4.238-1.945,1.148.029,2.678.075,4.209.123,1.656.052,3.31.107,4.479.146,1.087-3.05,3.115-10.178-.628-12.559-5.641-3.59-9.9-2.815-10.075-2.781a2.291,2.291,0,0,1-.947-4.482c.248-.055,6.157-1.265,13.483,3.4,8.191,5.213,2.069,19.117,1.8,19.706Z" transform="translate(-180.624 -367.574)" fill="#002076"/>
      </g>
      <g id="그룹_18" data-name="그룹 18" transform="translate(152.637 248.555)">
        <circle id="타원_1" data-name="타원 1" cx="12.787" cy="12.787" r="12.787" transform="translate(2.29 2.291)" fill="#fff"/>
        <path id="패스_44" data-name="패스 44" d="M176.742,408.234a15.077,15.077,0,1,1,15.077-15.077A15.094,15.094,0,0,1,176.742,408.234Zm0-25.574a10.5,10.5,0,1,0,10.5,10.5A10.509,10.509,0,0,0,176.742,382.66Z" transform="translate(-161.664 -378.079)" fill="#002076"/>
      </g>
      <path id="패스_45" data-name="패스 45" d="M231.221,457.95a1.188,1.188,0,0,1-.128-.007c-27.929-2.844-43.622-17.408-44.276-18.027a1.242,1.242,0,0,1,1.706-1.8c.154.145,15.777,14.608,42.823,17.362a1.241,1.241,0,0,1-.124,2.476Z" transform="translate(-23.134 -163.528)" fill="#002076"/>
      <path id="패스_46" data-name="패스 46" d="M253.14,387.945a1.976,1.976,0,1,1-1.975-1.976A1.975,1.975,0,0,1,253.14,387.945Z" transform="translate(-58.884 -134.019)" fill="#fff"/>
      <path id="패스_47" data-name="패스 47" d="M238.571,410.3a1.976,1.976,0,1,1-1.976-1.976A1.976,1.976,0,0,1,238.571,410.3Z" transform="translate(-50.585 -146.752)" fill="#fff"/>
      <path id="패스_48" data-name="패스 48" d="M228.99,432.652a1.976,1.976,0,1,1-1.975-1.975A1.975,1.975,0,0,1,228.99,432.652Z" transform="translate(-45.127 -159.486)" fill="#fff"/>
      <g id="그룹_20" data-name="그룹 20" transform="translate(194.711 257.658)">
        <g id="그룹_19" data-name="그룹 19">
          <path id="패스_49" data-name="패스 49" d="M273.739,414.174a8.729,8.729,0,0,1-2.079,2.208,6.1,6.1,0,0,1-2.373,1.078,6.73,6.73,0,0,1-2.5.027,8.46,8.46,0,0,1-2.55-.909,8.765,8.765,0,0,1-2.015-1.454,6.3,6.3,0,0,1-1.242-1.652,6.106,6.106,0,0,1-.565-1.8,7.622,7.622,0,0,1-.064-1.851,10.232,10.232,0,0,1,.358-1.85,14.557,14.557,0,0,1,.609-1.74q.334-.779.768-1.585l.46-.855a8.284,8.284,0,0,1,1.967-2.231,6.513,6.513,0,0,1,2.216-1.163,7.519,7.519,0,0,1,2.284-.262,8.565,8.565,0,0,1,2.164.337,10,10,0,0,1,1.854.766,8.638,8.638,0,0,1,2.287,1.713,5.182,5.182,0,0,1,1.2,2,5.709,5.709,0,0,1,.227,2.133,7.279,7.279,0,0,1-.568,2.231l-.5.933q-.168.311-2.092-.723-.454-.245-1.253-.7t-1.052-.591c-.03-.016-.075-.036-.137-.061a1.329,1.329,0,0,1-.136-.061.425.425,0,0,1-.233-.4,1.6,1.6,0,0,1,.117-.6q.123-.322.228-.654a1.219,1.219,0,0,0,.038-.637.7.7,0,0,0-.381-.474,1.39,1.39,0,0,0-.614-.18.988.988,0,0,0-.573.162,3.812,3.812,0,0,0-.5.376,3.112,3.112,0,0,0-.484.585q-.257.382-.419.652t-.419.727c-.171.3-.3.526-.381.666-.041.077-.124.217-.247.418s-.22.366-.29.5q-1.3,2.42-.184,3.109a.719.719,0,0,0,.652.025,1.618,1.618,0,0,0,.578-.416q.242-.27.523-.564a1.406,1.406,0,0,1,.464-.358l4.757,2.56Q273.907,413.8,273.739,414.174Z" transform="translate(-259.936 -399.743)" fill="#0091ae"/>
          <path id="패스_50" data-name="패스 50" d="M267.469,417.465a7.372,7.372,0,0,1-1.258-.109,8.909,8.909,0,0,1-2.667-.949,9.18,9.18,0,0,1-2.1-1.519,6.707,6.707,0,0,1-1.316-1.754,6.521,6.521,0,0,1-.6-1.914,8,8,0,0,1-.066-1.945,10.563,10.563,0,0,1,.371-1.92,14.853,14.853,0,0,1,.626-1.786c.225-.526.489-1.07.782-1.615l.461-.855a8.7,8.7,0,0,1,2.071-2.353,6.9,6.9,0,0,1,2.348-1.229,7.813,7.813,0,0,1,2.4-.277,9,9,0,0,1,2.261.354,10.39,10.39,0,0,1,1.926.8,9.028,9.028,0,0,1,2.388,1.791,5.587,5.587,0,0,1,1.28,2.152,6.1,6.1,0,0,1,.243,2.275,7.674,7.674,0,0,1-.6,2.348l-.518.967c-.263.493-.9.353-2.612-.568q-.457-.246-1.261-.7c-.527-.3-.874-.5-1.042-.586a.987.987,0,0,0-.1-.042c-.081-.033-.138-.059-.175-.078a.81.81,0,0,1-.438-.729,1.96,1.96,0,0,1,.142-.738q.118-.312.22-.633a.825.825,0,0,0,.03-.439.317.317,0,0,0-.189-.219,1.01,1.01,0,0,0-.444-.135.726.726,0,0,0-.356.1,3.458,3.458,0,0,0-.448.337,2.777,2.777,0,0,0-.423.513c-.166.248-.3.46-.408.636s-.243.415-.412.717l-.384.671c-.037.069-.124.215-.253.425-.12.195-.212.354-.28.478-.515.958-.989,2.188-.319,2.6a.331.331,0,0,0,.3,0,1.234,1.234,0,0,0,.442-.317c.166-.185.343-.376.533-.574a1.7,1.7,0,0,1,.612-.454l.161-.058,4.907,2.641a.786.786,0,0,1,.274,1.054l-.033.059a9.143,9.143,0,0,1-2.171,2.3,6.508,6.508,0,0,1-2.523,1.145A6.949,6.949,0,0,1,267.469,417.465ZM268.229,400a7.15,7.15,0,0,0-1.905.254,6.148,6.148,0,0,0-2.084,1.1,7.923,7.923,0,0,0-1.875,2.129l-.449.835c-.283.525-.537,1.047-.753,1.553a14.1,14.1,0,0,0-.593,1.7,9.784,9.784,0,0,0-.346,1.78,7.223,7.223,0,0,0,.061,1.758,5.744,5.744,0,0,0,.528,1.687,5.945,5.945,0,0,0,1.169,1.549,8.387,8.387,0,0,0,1.926,1.39,8.138,8.138,0,0,0,2.435.868,6.407,6.407,0,0,0,2.359-.025,5.743,5.743,0,0,0,2.225-1.014,8.376,8.376,0,0,0,1.965-2.081.194.194,0,0,0,.018-.074l-4.533-2.419a2.015,2.015,0,0,0-.2.184c-.184.192-.356.377-.514.554a2,2,0,0,1-.713.512,1.115,1.115,0,0,1-.985-.039c-.967-.6-.951-1.813.027-3.631.073-.134.173-.306.3-.514.116-.191.2-.324.236-.4l.385-.673c.173-.309.315-.554.424-.736s.254-.408.428-.669a3.461,3.461,0,0,1,.549-.658,4.148,4.148,0,0,1,.55-.414,1.378,1.378,0,0,1,.791-.221,1.755,1.755,0,0,1,.783.227,1.083,1.083,0,0,1,.574.729,1.582,1.582,0,0,1-.049.836q-.106.341-.234.675a1.236,1.236,0,0,0-.092.45.228.228,0,0,0,.129.108c.076.031.133.057.172.077q.259.138,1.063.6c.529.3.943.533,1.246.7a7.328,7.328,0,0,0,1.647.739l.426-.791a6.893,6.893,0,0,0,.524-2.08,5.338,5.338,0,0,0-.212-1.991,4.818,4.818,0,0,0-1.11-1.854,8.249,8.249,0,0,0-2.186-1.635,9.637,9.637,0,0,0-1.783-.736,8.2,8.2,0,0,0-2.067-.322Q268.359,400,268.229,400Z" transform="translate(-259.427 -399.232)" fill="#fff"/>
        </g>
      </g>
    </g>
    <path id="path" d="M767.208,198.333a1.564,1.564,0,0,0-2.513.8l-2.646,9.991a5.03,5.03,0,0,0-1.578-.245c-2.25,0-3.947,1.359-3.947,3.16s1.7,3.161,3.947,3.161a3.937,3.937,0,0,0,3.674-1.97,1.543,1.543,0,0,0,.146-.351l2.658-10.036a7.6,7.6,0,0,1,.8,4.709,1.564,1.564,0,0,0,3.064.632A10.565,10.565,0,0,0,767.208,198.333Z" transform="translate(-384.237 31.15)" fill="#002076"/>
    <path id="path-2" data-name="path" d="M743.357,299.039l-6.163-13.615a2.638,2.638,0,0,0-3.485-1.319l-11.486,5.163a2.639,2.639,0,0,0-1.322,3.494l4.016,8.872c-2.019.529-3.353,1.9-3.353,3.656,0,2.257,2.207,3.895,5.249,3.895,2.547,0,4.5-1.151,5.074-2.851a2.626,2.626,0,0,0-.007-2.109,3.245,3.245,0,0,0-.254-.565l-3.109-6.869,6.69-2.965,1.229,2.715c-2.058.515-3.423,1.9-3.423,3.675,0,2.256,2.207,3.894,5.248,3.894,2.548,0,4.505-1.152,5.075-2.852A2.631,2.631,0,0,0,743.357,299.039ZM733.473,290l.92,2.032-6.69,2.965-.9-2Z" transform="translate(-345.404 -128.292)" fill="#002076"/>
  </g>
</svg>
