<svg width="13" height="14" viewBox="0 0 13 14" fill="none" xmlns="http://www.w3.org/2000/svg">
<path d="M12.5 2.33334L5.16667 2.33334M12.5 11.6667L5.16667 11.6667M12.5 7L5.16667 7M2.5 2.33334C2.5 2.88562 2.05228 3.33334 1.5 3.33334C0.947715 3.33334 0.5 2.88562 0.5 2.33334C0.5 1.78105 0.947715 1.33334 1.5 1.33334C2.05228 1.33334 2.5 1.78105 2.5 2.33334ZM2.5 11.6667C2.5 12.219 2.05228 12.6667 1.5 12.6667C0.947715 12.6667 0.5 12.219 0.5 11.6667C0.5 11.1144 0.947715 10.6667 1.5 10.6667C2.05228 10.6667 2.5 11.1144 2.5 11.6667ZM2.5 7C2.5 7.55229 2.05228 8 1.5 8C0.947715 8 0.5 7.55229 0.5 7C0.5 6.44772 0.947715 6 1.5 6C2.05228 6 2.5 6.44772 2.5 7Z" stroke="#66728B" stroke-linecap="round" stroke-linejoin="round"/>
</svg>
