<svg width="13" height="12" viewBox="0 0 13 12" fill="none" xmlns="http://www.w3.org/2000/svg">
<g clip-path="url(#clip0_77_1395)">
<path d="M5.6167 2.00011H3.5167C2.67662 2.00011 2.25658 2.00011 1.93571 2.1636C1.65347 2.30741 1.424 2.53689 1.28019 2.81913C1.1167 3.14 1.1167 3.56004 1.1167 4.40011V8.60011C1.1167 9.44019 1.1167 9.86023 1.28019 10.1811C1.424 10.4633 1.65347 10.6928 1.93571 10.8366C2.25658 11.0001 2.67662 11.0001 3.5167 11.0001H7.7167C8.55678 11.0001 8.97682 11.0001 9.29768 10.8366C9.57993 10.6928 9.8094 10.4633 9.95321 10.1811C10.1167 9.86023 10.1167 9.44019 10.1167 8.60011V6.50011M4.11669 8.00011H4.95396C5.19855 8.00011 5.32084 8.00011 5.43593 7.97248C5.53797 7.94799 5.63551 7.90758 5.72498 7.85275C5.8259 7.79091 5.91238 7.70444 6.08533 7.53148L10.8667 2.75011C11.2809 2.3359 11.2809 1.66433 10.8667 1.25011C10.4525 0.8359 9.78091 0.8359 9.3667 1.25011L4.58532 6.03148C4.41236 6.20444 4.32589 6.29091 4.26405 6.39183C4.20922 6.4813 4.16881 6.57885 4.14432 6.68088C4.11669 6.79597 4.11669 6.91827 4.11669 7.16286V8.00011Z" stroke="#3F51B5" stroke-linecap="round" stroke-linejoin="round"/>
</g>
<defs>
<clipPath id="clip0_77_1395">
<rect width="12" height="12" fill="white" transform="translate(0.116699)"/>
</clipPath>
</defs>
</svg>
