<svg width="13" height="12" viewBox="0 0 13 12" fill="none" xmlns="http://www.w3.org/2000/svg">
<path d="M7.1167 1.13477V3.20004C7.1167 3.48006 7.1167 3.62007 7.1712 3.72703C7.21913 3.82111 7.29562 3.8976 7.3897 3.94554C7.49666 4.00004 7.63667 4.00004 7.9167 4.00004H9.98197M7.1167 8.5H4.1167M8.1167 6.5H4.1167M10.1167 4.99411V8.6C10.1167 9.44008 10.1167 9.86012 9.95321 10.181C9.8094 10.4632 9.57993 10.6927 9.29769 10.8365C8.97682 11 8.55678 11 7.7167 11H4.5167C3.67662 11 3.25658 11 2.93571 10.8365C2.65347 10.6927 2.424 10.4632 2.28019 10.181C2.1167 9.86012 2.1167 9.44008 2.1167 8.6V3.4C2.1167 2.55992 2.1167 2.13988 2.28019 1.81901C2.424 1.53677 2.65347 1.3073 2.93571 1.16349C3.25658 1 3.67662 1 4.5167 1H6.12259C6.48947 1 6.67292 1 6.84555 1.04145C6.9986 1.07819 7.14492 1.1388 7.27913 1.22104C7.4305 1.3138 7.56022 1.44352 7.81964 1.70294L9.41376 3.29706C9.67318 3.55648 9.8029 3.6862 9.89566 3.83757C9.9779 3.97178 10.0385 4.1181 10.0753 4.27115C10.1167 4.44378 10.1167 4.62723 10.1167 4.99411Z" stroke="#727272" stroke-linecap="round" stroke-linejoin="round"/>
</svg>
