<svg width="27" height="26" viewBox="0 0 27 26" fill="none" xmlns="http://www.w3.org/2000/svg">
<rect x="0.5" width="26" height="26" rx="13" fill="#994CFA"/>
<path d="M16.6822 8.31659C18.4395 10.0739 18.4395 12.9232 16.6822 14.6806M10.3182 14.6806C8.56083 12.9232 8.56083 10.0739 10.3182 8.31659M8.1967 16.8019C5.26777 13.873 5.26777 9.12424 8.1967 6.19531M18.8036 6.19531C21.7326 9.12424 21.7326 13.873 18.8036 16.8019M13.5002 12.9986C14.3286 12.9986 15.0002 12.327 15.0002 11.4986C15.0002 10.6702 14.3286 9.9986 13.5002 9.9986C12.6717 9.9986 12.0002 10.6702 12.0002 11.4986C12.0002 12.327 12.6717 12.9986 13.5002 12.9986ZM13.5002 12.9986V19.7486" stroke="white" stroke-width="1.5" stroke-linecap="round" stroke-linejoin="round"/>
</svg>
