<svg width="17" height="16" viewBox="0 0 17 16" fill="none" xmlns="http://www.w3.org/2000/svg">
<path d="M14.5 3.33334L7.16667 3.33334M14.5 12.6667L7.16667 12.6667M14.5 8L7.16667 8M4.5 3.33334C4.5 3.88562 4.05228 4.33334 3.5 4.33334C2.94772 4.33334 2.5 3.88562 2.5 3.33334C2.5 2.78105 2.94772 2.33334 3.5 2.33334C4.05228 2.33334 4.5 2.78105 4.5 3.33334ZM4.5 12.6667C4.5 13.219 4.05228 13.6667 3.5 13.6667C2.94772 13.6667 2.5 13.219 2.5 12.6667C2.5 12.1144 2.94772 11.6667 3.5 11.6667C4.05228 11.6667 4.5 12.1144 4.5 12.6667ZM4.5 8C4.5 8.55229 4.05228 9 3.5 9C2.94772 9 2.5 8.55229 2.5 8C2.5 7.44772 2.94772 7 3.5 7C4.05228 7 4.5 7.44772 4.5 8Z" stroke="#3D61AD" stroke-linecap="round" stroke-linejoin="round"/>
</svg>
