<svg xmlns="http://www.w3.org/2000/svg" xmlns:xlink="http://www.w3.org/1999/xlink" width="500" height="184" viewBox="0 0 500 184">
  <defs>
    <clipPath id="clip-path">
      <rect id="사각형_1" data-name="사각형 1" width="500" height="184" transform="translate(0 3)"/>
    </clipPath>
    <linearGradient id="linear-gradient" x1="0.883" y1="0.5" x2="2.41" y2="0.5" gradientUnits="objectBoundingBox">
      <stop offset="0" stop-color="#003f88"/>
      <stop offset="1" stop-color="#009098"/>
    </linearGradient>
    <linearGradient id="linear-gradient-2" x1="-0.093" x2="1.284" xlink:href="#linear-gradient"/>
    <linearGradient id="linear-gradient-3" x1="-1.186" x2="0.277" xlink:href="#linear-gradient"/>
  </defs>
  <g id="logo" transform="translate(0 -3)" clip-path="url(#clip-path)">
    <g id="그룹_3" data-name="그룹 3" transform="translate(-159.85 -305.019)">
      <g id="그룹_1" data-name="그룹 1" transform="translate(159.848 308.01)">
        <path id="패스_1" data-name="패스 1" d="M305.173,319.792a101.409,101.409,0,0,0-12.233-4.779,115.341,115.341,0,0,0-15.369-3.258,131.022,131.022,0,0,0-18.465-1.166q-39,0-65.477,24.525-26.464,24.53-32.338,65.766-6.082,42.767,13.5,66.357t58.567,23.6a119.9,119.9,0,0,0,19.734-1.283,154.119,154.119,0,0,0,15.787-3.742,116.707,116.707,0,0,0,13.606-4.84q6.692-2.857,11.788-5.086l5.807-40.863h-3.958q-3.675,2.939-8.649,6.678a106.291,106.291,0,0,1-11.293,7.388,76.685,76.685,0,0,1-14.079,6.389,50.6,50.6,0,0,1-16.837,2.875,46.566,46.566,0,0,1-16.2-2.909,33.775,33.775,0,0,1-13.742-9.452q-6.023-6.75-8.77-17.77T206.109,401a85.186,85.186,0,0,1,7.928-26.693q5.746-11.3,13.219-17.95A50.335,50.335,0,0,1,243.7,346.043a51.972,51.972,0,0,1,17.723-2.974,41.6,41.6,0,0,1,14.834,2.614,61.027,61.027,0,0,1,12.436,6.371,80.286,80.286,0,0,1,9.752,7.638q4.213,3.906,6.972,6.7h4.422l5.878-41.362Q311.729,322.832,305.173,319.792Z" transform="translate(-159.848 -308.06)" fill="url(#linear-gradient)"/>
        <path id="패스_2" data-name="패스 2" d="M431.806,439.3c-17.178,6.289-36.365-94.361-37.337-124.683H341.114L316.453,488h39.8l13.858-97.455S382.606,488,427.287,488h37.388l24.651-173.385h-39.8Z" transform="translate(-162.858 -308.137)" fill="url(#linear-gradient-2)"/>
        <path id="패스_3" data-name="패스 3" d="M615.649,312.129l-.332,2.359H615.3l-15.49,109q-2.689,18.888-10.956,27.449t-23.273,8.569q-15.381,0-20.909-8.913-5.562-8.923-2.966-27.1l16.307-110.529h-43.46l-16.59,112.574q-4.639,32.585,11.732,49.515Q526.073,492,560.966,491.989q35.932,0,56.69-17.22t25.335-49.344l8.156-57.3h0l8.547-60.106a432.186,432.186,0,0,1-44.045,4.11Z" transform="translate(-166.326 -308.01)" fill="url(#linear-gradient-3)"/>
      </g>
      <g id="그룹_2" data-name="그룹 2" transform="translate(159.967 310.522)" opacity="0.3">
        <path id="패스_4" data-name="패스 4" d="M292.946,315a115.341,115.341,0,0,0-15.369-3.259,131.054,131.054,0,0,0-18.466-1.165q-39,0-65.477,24.525T161.3,400.86a138.317,138.317,0,0,0-1.327,16.761,241.278,241.278,0,0,0,47.543,13.761c-.328-1.049-.681-2.068-.958-3.183q-2.741-11.013-.439-27.216a85.188,85.188,0,0,1,7.928-26.692q5.748-11.3,13.218-17.95A50.367,50.367,0,0,1,243.7,346.025a52.015,52.015,0,0,1,17.723-2.974,41.641,41.641,0,0,1,14.833,2.614,61.066,61.066,0,0,1,12.437,6.371,80.618,80.618,0,0,1,9.751,7.639q4.213,3.907,6.972,6.7h4.423l5.877-41.36q-3.985-2.2-10.542-5.242A101.708,101.708,0,0,0,292.946,315Z" transform="translate(-159.969 -310.571)" fill="#fff"/>
        <path id="패스_5" data-name="패스 5" d="M440.667,393.755q21.74-10.4,43.115-23.362l7.934-55.794h-39.8Z" transform="translate(-165.363 -310.648)" fill="#fff"/>
        <path id="패스_6" data-name="패스 6" d="M341.277,314.6,324.753,430.768a408.262,408.262,0,0,0,41.152-9.506l3.958-27.831.412-2.9s.133,1.023.4,2.791c.685,4.443,2.292,13.819,5.133,25.04q17.735-5.493,35.513-12.7c-9.153-30.471-16.119-73.1-16.694-91.056Z" transform="translate(-163.135 -310.648)" fill="#fff"/>
        <path id="패스_7" data-name="패스 7" d="M514.782,313.044l-6.217,42.189c8.666-5.913,17.265-12.072,25.729-18.625,8.05-6.232,15.773-12.676,23.308-19.231l.64-4.333Z" transform="translate(-166.667 -310.619)" fill="#fff"/>
      </g>
    </g>
  </g>
</svg>
