<svg width="26" height="26" viewBox="0 0 26 26" fill="none" xmlns="http://www.w3.org/2000/svg">
<rect width="26" height="26" rx="13" fill="#20BD7B"/>
<path d="M16.75 11.5V10C16.75 7.92893 15.0711 6.25 13 6.25C10.9289 6.25 9.25 7.92893 9.25 10V11.5M13 14.875V16.375M10.6 19.75H15.4C16.6601 19.75 17.2902 19.75 17.7715 19.5048C18.1948 19.289 18.539 18.9448 18.7548 18.5215C19 18.0402 19 17.4101 19 16.15V15.1C19 13.8399 19 13.2098 18.7548 12.7285C18.539 12.3052 18.1948 11.961 17.7715 11.7452C17.2902 11.5 16.6601 11.5 15.4 11.5H10.6C9.33988 11.5 8.70982 11.5 8.22852 11.7452C7.80516 11.961 7.46095 12.3052 7.24524 12.7285C7 13.2098 7 13.8399 7 15.1V16.15C7 17.4101 7 18.0402 7.24524 18.5215C7.46095 18.9448 7.80516 19.289 8.22852 19.5048C8.70982 19.75 9.33988 19.75 10.6 19.75Z" stroke="white" stroke-width="1.5" stroke-linecap="round" stroke-linejoin="round"/>
</svg>
