<svg width="26" height="26" viewBox="0 0 26 26" fill="none" xmlns="http://www.w3.org/2000/svg">
<rect width="26" height="26" rx="13" fill="#FF9F2D"/>
<path d="M8.875 8.875H8.8825M17.125 8.875H17.1325M8.875 17.125H8.8825M13.75 13.75H13.7575M17.125 17.125H17.1325M16.75 19.75H19.75V16.75M14.5 16.375V19.75M19.75 14.5H16.375M15.7 11.5H18.55C18.97 11.5 19.1801 11.5 19.3405 11.4183C19.4816 11.3463 19.5963 11.2316 19.6683 11.0905C19.75 10.9301 19.75 10.72 19.75 10.3V7.45C19.75 7.02996 19.75 6.81994 19.6683 6.65951C19.5963 6.51839 19.4816 6.40365 19.3405 6.33175C19.1801 6.25 18.97 6.25 18.55 6.25H15.7C15.28 6.25 15.0699 6.25 14.9095 6.33175C14.7684 6.40365 14.6537 6.51839 14.5817 6.65951C14.5 6.81994 14.5 7.02996 14.5 7.45V10.3C14.5 10.72 14.5 10.9301 14.5817 11.0905C14.6537 11.2316 14.7684 11.3463 14.9095 11.4183C15.0699 11.5 15.28 11.5 15.7 11.5ZM7.45 11.5H10.3C10.72 11.5 10.9301 11.5 11.0905 11.4183C11.2316 11.3463 11.3463 11.2316 11.4183 11.0905C11.5 10.9301 11.5 10.72 11.5 10.3V7.45C11.5 7.02996 11.5 6.81994 11.4183 6.65951C11.3463 6.51839 11.2316 6.40365 11.0905 6.33175C10.9301 6.25 10.72 6.25 10.3 6.25H7.45C7.02996 6.25 6.81994 6.25 6.65951 6.33175C6.51839 6.40365 6.40365 6.51839 6.33175 6.65951C6.25 6.81994 6.25 7.02996 6.25 7.45V10.3C6.25 10.72 6.25 10.9301 6.33175 11.0905C6.40365 11.2316 6.51839 11.3463 6.65951 11.4183C6.81994 11.5 7.02996 11.5 7.45 11.5ZM7.45 19.75H10.3C10.72 19.75 10.9301 19.75 11.0905 19.6683C11.2316 19.5963 11.3463 19.4816 11.4183 19.3405C11.5 19.1801 11.5 18.97 11.5 18.55V15.7C11.5 15.28 11.5 15.0699 11.4183 14.9095C11.3463 14.7684 11.2316 14.6537 11.0905 14.5817C10.9301 14.5 10.72 14.5 10.3 14.5H7.45C7.02996 14.5 6.81994 14.5 6.65951 14.5817C6.51839 14.6537 6.40365 14.7684 6.33175 14.9095C6.25 15.0699 6.25 15.28 6.25 15.7V18.55C6.25 18.97 6.25 19.1801 6.33175 19.3405C6.40365 19.4816 6.51839 19.5963 6.65951 19.6683C6.81994 19.75 7.02996 19.75 7.45 19.75Z" stroke="white" stroke-width="1.5" stroke-linecap="round" stroke-linejoin="round"/>
</svg>
