<svg width="13" height="12" viewBox="0 0 13 12" fill="none" xmlns="http://www.w3.org/2000/svg">
<path d="M10.1167 6.25V3.4C10.1167 2.55992 10.1167 2.13988 9.95321 1.81901C9.8094 1.53677 9.57993 1.3073 9.29769 1.16349C8.97682 1 8.55678 1 7.7167 1H4.5167C3.67662 1 3.25658 1 2.93571 1.16349C2.65347 1.3073 2.424 1.53677 2.28019 1.81901C2.1167 2.13988 2.1167 2.55992 2.1167 3.4V8.6C2.1167 9.44008 2.1167 9.86012 2.28019 10.181C2.424 10.4632 2.65347 10.6927 2.93571 10.8365C3.25658 11 3.67662 11 4.5167 11H6.1167M7.1167 5.5H4.1167M5.1167 7.5H4.1167M8.1167 3.5H4.1167M7.3667 9.5L8.3667 10.5L10.6167 8.25" stroke="#FB8C00" stroke-linecap="round" stroke-linejoin="round"/>
</svg>
