<svg width="13" height="12" viewBox="0 0 13 12" fill="none" xmlns="http://www.w3.org/2000/svg">
<g clip-path="url(#clip0_16_15190)">
<path d="M5.3667 2.57092C5.61218 2.52406 5.8632 2.5 6.1167 2.5C7.17757 2.5 8.19498 2.92143 8.94513 3.67157C9.69527 4.42172 10.1167 5.43913 10.1167 6.5C10.1167 6.7535 10.0926 7.00452 10.0458 7.25M9.18447 9.06687C9.10889 9.1572 9.02907 9.24448 8.94513 9.32843C8.19498 10.0786 7.17757 10.5 6.1167 10.5C5.05583 10.5 4.03842 10.0786 3.28827 9.32843C2.53813 8.57828 2.1167 7.56087 2.1167 6.5C2.1167 5.43913 2.53813 4.42172 3.28827 3.67157C3.37144 3.58841 3.45789 3.50928 3.54732 3.43433M2.1167 2L1.1167 3M11.1167 3L9.6167 1.5M3.1167 9.5L2.1167 10.5M10.6167 10.5L1.6167 1.5" stroke="#EF5350" stroke-linecap="round" stroke-linejoin="round"/>
</g>
<defs>
<clipPath id="clip0_16_15190">
<rect width="12" height="12" fill="white" transform="translate(0.116699)"/>
</clipPath>
</defs>
</svg>
